%TF.GenerationSoftware,KiCad,Pcbnew,10.0.3*%
%TF.CreationDate,2026-06-14T14:46:24-04:00*%
%TF.ProjectId,Attiny85_USB_panel,41747469-6e79-4383-955f-5553425f7061,rev?*%
%TF.SameCoordinates,Original*%
%TF.FileFunction,Soldermask,Top*%
%TF.FilePolarity,Negative*%
%FSLAX46Y46*%
G04 Gerber Fmt 4.6, Leading zero omitted, Abs format (unit mm)*
G04 Created by KiCad (PCBNEW 10.0.3) date 2026-06-14 14:46:24*
%MOMM*%
%LPD*%
G01*
G04 APERTURE LIST*
G04 Aperture macros list*
%AMRoundRect*
0 Rectangle with rounded corners*
0 $1 Rounding radius*
0 $2 $3 $4 $5 $6 $7 $8 $9 X,Y pos of 4 corners*
0 Add a 4 corners polygon primitive as box body*
4,1,4,$2,$3,$4,$5,$6,$7,$8,$9,$2,$3,0*
0 Add four circle primitives for the rounded corners*
1,1,$1+$1,$2,$3*
1,1,$1+$1,$4,$5*
1,1,$1+$1,$6,$7*
1,1,$1+$1,$8,$9*
0 Add four rect primitives between the rounded corners*
20,1,$1+$1,$2,$3,$4,$5,0*
20,1,$1+$1,$4,$5,$6,$7,0*
20,1,$1+$1,$6,$7,$8,$9,0*
20,1,$1+$1,$8,$9,$2,$3,0*%
G04 Aperture macros list end*
%ADD10RoundRect,0.250000X-0.350000X-0.450000X0.350000X-0.450000X0.350000X0.450000X-0.350000X0.450000X0*%
%ADD11RoundRect,0.300000X-3.200000X-0.700000X3.200000X-0.700000X3.200000X0.700000X-3.200000X0.700000X0*%
%ADD12RoundRect,0.225000X-2.775000X-0.525000X2.775000X-0.525000X2.775000X0.525000X-2.775000X0.525000X0*%
%ADD13R,1.700000X1.700000*%
%ADD14C,1.700000*%
%ADD15RoundRect,0.250000X-0.450000X0.350000X-0.450000X-0.350000X0.450000X-0.350000X0.450000X0.350000X0*%
%ADD16R,1.800000X1.800000*%
%ADD17C,1.800000*%
%ADD18RoundRect,0.250000X0.650000X-0.412500X0.650000X0.412500X-0.650000X0.412500X-0.650000X-0.412500X0*%
%ADD19RoundRect,0.062500X-0.362500X-0.062500X0.362500X-0.062500X0.362500X0.062500X-0.362500X0.062500X0*%
%ADD20RoundRect,0.062500X-0.062500X-0.362500X0.062500X-0.362500X0.062500X0.362500X-0.062500X0.362500X0*%
%ADD21R,2.600000X2.600000*%
%ADD22RoundRect,0.250000X0.800000X-0.450000X0.800000X0.450000X-0.800000X0.450000X-0.800000X-0.450000X0*%
G04 APERTURE END LIST*
D10*
%TO.C,R1*%
X123444000Y-77978000D03*
X125444000Y-77978000D03*
%TD*%
D11*
%TO.C,U2*%
X105918000Y-72898000D03*
D12*
X105918000Y-75648000D03*
X105918000Y-77648000D03*
D11*
X105918000Y-80398000D03*
%TD*%
D13*
%TO.C,J1*%
X134874000Y-72136000D03*
D14*
X132334000Y-72136000D03*
X129794000Y-72136000D03*
X127254000Y-72136000D03*
%TD*%
D13*
%TO.C,J2*%
X127000000Y-81026000D03*
D14*
X129540000Y-81026000D03*
X132080000Y-81026000D03*
X134620000Y-81026000D03*
%TD*%
D15*
%TO.C,R4*%
X120650000Y-71644000D03*
X120650000Y-73644000D03*
%TD*%
D10*
%TO.C,R2*%
X123476000Y-75184000D03*
X125476000Y-75184000D03*
%TD*%
D16*
%TO.C,D3*%
X139446000Y-78486000D03*
D17*
X139446000Y-75946000D03*
%TD*%
D18*
%TO.C,C1*%
X116332000Y-74968500D03*
X116332000Y-71843500D03*
%TD*%
D19*
%TO.C,U1*%
X129540000Y-75438000D03*
X129540000Y-75938000D03*
X129540000Y-76438000D03*
X129540000Y-76938000D03*
X129540000Y-77438000D03*
D20*
X130465000Y-78363000D03*
X130965000Y-78363000D03*
X131465000Y-78363000D03*
X131965000Y-78363000D03*
X132465000Y-78363000D03*
D19*
X133390000Y-77438000D03*
X133390000Y-76938000D03*
X133390000Y-76438000D03*
X133390000Y-75938000D03*
X133390000Y-75438000D03*
D20*
X132465000Y-74513000D03*
X131965000Y-74513000D03*
X131465000Y-74513000D03*
X130965000Y-74513000D03*
X130465000Y-74513000D03*
D21*
X131465000Y-76438000D03*
%TD*%
D22*
%TO.C,D1*%
X117094000Y-81616000D03*
X117094000Y-77216000D03*
%TD*%
%TO.C,D2*%
X120650000Y-80686000D03*
X120650000Y-76286000D03*
%TD*%
D10*
%TO.C,R3*%
X138430000Y-72390000D03*
X140430000Y-72390000D03*
%TD*%
M02*
